<svg xmlns="http://www.w3.org/2000/svg" version="1.1" xmlns:xlink="http://www.w3.org/1999/xlink" xmlns:svgjs="http://svgjs.dev/svgjs" width="1500" height="1687" viewBox="0 0 1500 1687"><g transform="matrix(1,0,0,1,0.00011015625000254659,0)"><svg viewBox="0 0 320 360" data-background-color="#ffffff" preserveAspectRatio="xMidYMid meet" height="1687" width="1500" xmlns="http://www.w3.org/2000/svg" xmlns:xlink="http://www.w3.org/1999/xlink"><g id="tight-bounds" transform="matrix(1,0,0,1,0.000023499999997511622,0)"><svg viewBox="0 0 320 360" height="360" width="320"><g><svg></svg></g><g><svg viewBox="0 0 320 360" height="360" width="320"><g><path transform="translate(-74.99272,-51.79039) scale(4.65793,4.65793)" d="M20.6 59.9l0.8 1-0.4-1.3c-0.1-0.6-0.8 0.1-0.4 0.3M21.5 59.3c0.3 0.5 0.6 1 0.6 1.5 0 0.7 0.6 1 1.1 1.2-0.7-0.8-1.1-3-1.7-2.7M59.9 16.9c1.7 0 3.3-0.2 5.1 0.2 4.4 1.1 8.1 3.3 10.6 6.4l7 11.2c0.3 2.8 0.9 5.9 0.8 9.3 0.7 0 0.6-1 1.4-1.2-0.8 2-1.2 4.5-1.4 7.4-0.5-1.6 0-4 0.1-5.3-0.7 1.1-1.1 0.3-1.1-0.2 0.1-0.8-0.3-0.7-0.6-1-1.1-1-1.8-2.1-2.6-3.8 0.5-1.3 0.6-3.2-1-4.2-0.5-0.3-1.1-0.8-1.4-1.6-0.4-1.1-1.1-2.4-0.9-4.1 0.1-0.5-1.5 1.1-2.4 0.4-3.9-2.7-7.8-5.8-12.5-8.4-2.5 0-4.3-0.9-5.2-2-0.8-1-0.2-2.3 1-2.4 0.7 0 1.5-0.2 2.1 0.2 0.1-0.4 0.5-0.9 1-0.9M50 14.6l0.2 0.1c1 0.2 1.5 1.6 2.6 1.1 0 0.7 0.1 1.4-0.1 1.9-0.3 0.8-1.2 0.8-1.9 0.8-6.7-0.4-10.6 2.4-14.7 4.8-1.1 0.7-2.3 1.2-3.2 2.1-4.3 4-9 7.7-10.1 15.1l-0.9 8.2c-0.1 0.9-1.1 1.8-0.9 2.9l0.7 4.9c-0.7-0.7-1.1 0.2-0.9 0.6 0.1 0.3 0.5 1.3 1.1 0.4 0.8 1.5 1.6 4.4 2.7 5.7 3.4 4 7.8 7.6 11.4 11.2 0.9-0.2 1.6-0.2 1.8-0.8 0.3 0.6-0.3 1.2-0.8 1.3 1.6 1 3.4 1.9 5.8 2.1 3.1 0.2 6 0.7 8.7 1.4 1.4-0.4 2.8-0.6 4.3-0.7 0.5 0 0.8-0.8 1.4-1l0.1-1c0.6 0.9 0.5-0.3 0.1-0.9 0.7 0.6 0.9 1.1 1.2 1.5 0-0.3 0.8-1.4 0.8-0.1l0.2-1.3c0.3-0.2 0.4 1.1 0.7 0.2 0.3-0.9 0.9-0.2 1.5-0.5-0.2 0.4-0.1 1.2 0.6 0.7l0.8-0.7c0.5 1.2 1.3 0.7 1.7 0.5 4.4-2.8 8.8-6.1 13-9.4l-0.1 1.3 0.5-1.6c0.5 0.5 0.9 0.1 1.1-0.2 0.6-1 1.4-2 2.7-2.9-1.6 4.3-3.5 7.7-5.9 10.5l-1 1.2c0 0.7-0.2 1.6-1 1.7-0.4 0.1-1.2-0.2-1.8 0.4-0.3 0.4 0.7 1.2-0.1 0.6-0.7-0.5-1.4 0-2.2 0.2-0.6 0.2 0.4 0.8 0.6 1.2 0.2 0.4 0.4 0.8 0.3 1.3l-1.1-1.2c-1.3 0.7-2.1 2-3.2 3-0.5 0.4-0.3 1.1-0.3 1.7-0.7 0-1.5-0.2-1.9 0.2-0.3 0.4-0.2 1-0.2 1.6-1-0.1-1.1-1.6-2-1.3-0.9 0.2-1.9 0.3-2.7 0.8 0.6 1.2-1 0.5-0.8 0.7-1.5-0.9-2.8-1.6-4.4-1-3.4-1.1-7.6-0.6-10.7-0.2 0-0.5 0.1-1-0.1-1.1-0.2 0.5-0.8 0.3-0.7 0.3-1.9-1.3-3.8-2.1-5.8-3.2-1.8 0.2-3.5-0.7-4-1.2-1.4-1.3-3-0.6-4.3-0.9-2.8-0.7-3.8-3.6-4.1-5.6-0.2-1-1-1.4-1.3-1.3-1.3-4.2-3.3-8-4.9-11.9-0.4-1-0.3-2-0.3-3.1 0.5 0.2 1 0.1 0.9-0.6-0.5-3.3-1.7-5.8-3-8.2 0.7-3.4 0.8-7.4 2.4-10.4 1.4-2.7 4-4.1 5.8-6.4 0.6-0.8 0.6-1.9 1.2-2.6 2-2 4-4.1 6.2-5.9 1-0.8 2.2 0 3.7-0.3 0.5-1.8 2.5-3.4 4.4-2.9 0.8 0.2 2.4-1.9 2.9-2.1 0.8-0.3 0.4 0.8 0.4 1.5 1.9-1.5 4.5-2.3 6.9-3.2" fill="#010c80" fill-rule="nonzero" stroke="none" stroke-width="1" stroke-linecap="butt" stroke-linejoin="miter" stroke-miterlimit="10" stroke-dasharray="" stroke-dashoffset="0" font-family="none" font-weight="none" font-size="none" text-anchor="none" style="mix-blend-mode: normal" data-fill-palette-color="tertiary"></path></g><g transform="matrix(1,0,0,1,64,127.6945715161416)"><svg viewBox="0 0 192 104.61085696771681" height="104.61085696771681" width="192"><g><svg viewBox="0 0 192 104.61085696771681" height="104.61085696771681" width="192"><g><svg viewBox="0 0 325.7598853810034 177.489691538604" height="104.61085696771681" width="192"><g transform="matrix(1,0,0,1,133.7598853810034,5.444816823733177)"><svg viewBox="0 0 192 166.60005789113765" height="166.60005789113765" width="192"><g id="textblocktransform"><svg viewBox="0 0 192 166.60005789113765" height="166.60005789113765" width="192" id="textblock"><g><svg viewBox="0 0 192 137.4478952137738" height="137.4478952137738" width="192"><g transform="matrix(1,0,0,1,0,0)"><svg width="192" viewBox="0.7500000000000022 -39.949999999999996 121.38998644507676 83.85" height="137.4478952137738" data-palette-color="#010c80"><svg></svg><svg></svg><g class="wordmark-text-0" data-fill-palette-color="primary" id="text-0"><path d="M24.75-8.4v-6.35c0-0.767-0.283-1.51-0.85-2.23-0.567-0.713-1.567-1.12-3-1.22v0c-0.933 1.133-2.067 1.7-3.4 1.7v0c-1.133 0-2.1-0.4-2.9-1.2-0.8-0.8-1.2-1.783-1.2-2.95v0c0-1.167 0.4-2.15 1.2-2.95 0.8-0.8 1.767-1.2 2.9-1.2v0c0.6 0 1.193 0.167 1.78 0.5 0.58 0.333 1.103 0.733 1.57 1.2v0c0.733-0.033 1.3-0.15 1.7-0.35 0.4-0.2 0.693-0.443 0.88-0.73 0.18-0.28 0.287-0.603 0.32-0.97 0.033-0.367 0.05-0.733 0.05-1.1v0-5.05c0-0.833-0.257-1.6-0.77-2.3-0.52-0.7-1.397-1.05-2.63-1.05v0h-10.45l-0.05 33c0 0.667-0.31 1.173-0.93 1.52-0.613 0.353-1.287 0.53-2.02 0.53v0c-1.967 0-2.95-0.8-2.95-2.4v0-34.7c0-1.2 0.31-2 0.93-2.4 0.613-0.4 1.353-0.6 2.22-0.6v0h14.5c0.867 0 1.793 0.167 2.78 0.5 0.98 0.333 1.903 0.783 2.77 1.35v0h-0.05c0.867 0.633 1.51 1.467 1.93 2.5 0.413 1.033 0.62 2.233 0.62 3.6v0 5.65c0 1.333-0.283 2.423-0.85 3.27-0.567 0.853-1.167 1.53-1.8 2.03v0c0.433 0.267 0.85 0.54 1.25 0.82 0.4 0.287 0.733 0.597 1 0.93v0c0.433 0.467 0.777 1.017 1.03 1.65 0.247 0.633 0.37 1.383 0.37 2.25v0 7.15c0 2.733-1.067 4.75-3.2 6.05v0c-1.067 0.667-2.073 1.167-3.02 1.5-0.953 0.333-1.897 0.5-2.83 0.5v0h-7.4c-0.567 0-1.007-0.233-1.32-0.7-0.32-0.467-0.48-1.083-0.48-1.85v0c0-1.667 0.7-2.5 2.1-2.5v0h6.85c1.233 0 2.1-0.35 2.6-1.05 0.5-0.7 0.75-1.483 0.75-2.35zM65.15-37.55v29.55c0 2.7-0.9 4.717-2.7 6.05v0c-0.867 0.633-1.757 1.123-2.67 1.47-0.92 0.353-1.813 0.53-2.68 0.53v0h-10.9c-0.867 0-1.757-0.177-2.67-0.53-0.92-0.347-1.813-0.837-2.68-1.47v0c-0.867-0.667-1.533-1.49-2-2.47-0.467-0.987-0.7-2.18-0.7-3.58v0-29.55c0-1.6 0.983-2.4 2.95-2.4v0c2 0 3 0.8 3 2.4v0 29.15c0 0.867 0.25 1.65 0.75 2.35 0.5 0.7 1.367 1.05 2.6 1.05v0h8.4c1.233 0 2.1-0.35 2.6-1.05 0.5-0.7 0.75-1.483 0.75-2.35v0-29.15c0-1.6 0.983-2.4 2.95-2.4v0c2 0 3 0.8 3 2.4zM99.75-11.3v3.3c0 2.7-0.9 4.717-2.7 6.05v0c-0.867 0.633-1.757 1.123-2.67 1.47-0.92 0.353-1.813 0.53-2.68 0.53v0h-10.9c-0.867 0-1.757-0.177-2.67-0.53-0.92-0.347-1.813-0.837-2.68-1.47v0c-0.867-0.667-1.533-1.49-2-2.47-0.467-0.987-0.7-2.18-0.7-3.58v0-23.75c0-1.333 0.233-2.507 0.7-3.52 0.467-1.02 1.133-1.847 2-2.48v0h-0.05c0.867-0.567 1.767-1.033 2.7-1.4 0.933-0.367 1.833-0.55 2.7-0.55v0h10.9c0.867 0 1.767 0.183 2.7 0.55 0.933 0.367 1.833 0.833 2.7 1.4v0h-0.05c0.867 0.633 1.533 1.46 2 2.48 0.467 1.013 0.7 2.187 0.7 3.52v0 3.45c0 1.6-1 2.4-3 2.4v0c-1.967 0-2.95-0.8-2.95-2.4v0-3c0-0.833-0.25-1.6-0.75-2.3-0.5-0.7-1.367-1.05-2.6-1.05v0h-8.4c-1.233 0-2.1 0.35-2.6 1.05-0.5 0.7-0.75 1.467-0.75 2.3v0 22.9c0 0.867 0.25 1.65 0.75 2.35 0.5 0.7 1.367 1.05 2.6 1.05v0h8.4c1.233 0 2.1-0.35 2.6-1.05 0.5-0.7 0.75-1.483 0.75-2.35v0-2.9c0-1.567 0.983-2.35 2.95-2.35v0c2 0 3 0.783 3 2.35z" fill="#010c80" fill-rule="nonzero" stroke="none" stroke-width="1" stroke-linecap="butt" stroke-linejoin="miter" stroke-miterlimit="10" stroke-dasharray="" stroke-dashoffset="0" font-family="none" font-weight="none" font-size="none" text-anchor="none" style="mix-blend-mode: normal" data-fill-palette-color="primary" opacity="1"></path><path transform="translate(0,43.45)" d="M17.35-34.65v32.65c0 1.6-1 2.4-3 2.4v0c-1.967 0-2.95-0.8-2.95-2.4v0-32.65h-8.75c-1.2 0-1.833-0.85-1.9-2.55v0c0-1.667 0.633-2.5 1.9-2.5v0h23.45c1.267 0 1.867 0.833 1.8 2.5v0c0 1.7-0.6 2.55-1.8 2.55v0zM53.85 0.05h-18.3c-1.233 0-2.067-0.317-2.5-0.95-0.433-0.633-0.65-1.333-0.65-2.1v0-33.7c0-0.767 0.217-1.46 0.65-2.08 0.433-0.613 1.267-0.92 2.5-0.92v0h17.4c1.233 0 1.883 0.833 1.95 2.5v0c0.067 1.7-0.583 2.55-1.95 2.55v0h-14.65v29.65h15.55c1.233 0 1.867 0.817 1.9 2.45v0c0.067 1.733-0.567 2.6-1.9 2.6zM51.1-20.65v0c0 1.167-0.407 2.15-1.22 2.95-0.82 0.8-1.813 1.2-2.98 1.2v0c-1.133 0-2.1-0.4-2.9-1.2-0.8-0.8-1.2-1.783-1.2-2.95v0c0-1.167 0.4-2.15 1.2-2.95 0.8-0.8 1.767-1.2 2.9-1.2v0c1.167 0 2.16 0.4 2.98 1.2 0.813 0.8 1.22 1.783 1.22 2.95zM72.9 0.25v0c-0.667 0-1.373-0.11-2.12-0.33-0.753-0.213-1.297-0.62-1.63-1.22v0c-0.767-2.6-1.567-5.267-2.4-8-0.833-2.733-1.667-5.417-2.5-8.05v0c-0.933-3.1-1.933-6.327-3-9.68-1.067-3.347-2.067-6.553-3-9.62v0c-0.2-0.733-0.083-1.377 0.35-1.93 0.433-0.547 1.05-0.953 1.85-1.22v0c0.5-0.133 0.933-0.2 1.3-0.2v0c1.133 0 1.867 0.567 2.2 1.7v0l3.7 11.85c0.333 1.2 0.727 2.517 1.18 3.95 0.447 1.433 0.903 2.9 1.37 4.4 0.467 1.5 0.933 2.99 1.4 4.47 0.467 1.487 0.9 2.863 1.3 4.13v0c0.633-2.1 1.327-4.373 2.08-6.82 0.747-2.453 1.513-4.947 2.3-7.48 0.78-2.533 1.553-5.043 2.32-7.53 0.767-2.48 1.483-4.803 2.15-6.97v0c0.367-1.133 1.083-1.7 2.15-1.7v0c0.4 0 0.867 0.067 1.4 0.2v0c1.833 0.5 2.55 1.55 2.15 3.15v0c-1.8 5.833-3.617 11.717-5.45 17.65-1.833 5.933-3.65 11.833-5.45 17.7v0c-0.267 0.667-0.757 1.09-1.47 1.27-0.72 0.187-1.447 0.28-2.18 0.28zM116.35-1.2l-11-33.6-10.95 33.6v-0.05c-0.2 0.5-0.473 0.907-0.82 1.22-0.353 0.32-0.78 0.48-1.28 0.48v0c-0.267 0-0.523-0.023-0.77-0.07-0.253-0.053-0.513-0.113-0.78-0.18v0h0.05c-1.9-0.6-2.6-1.667-2.1-3.2v0l11.4-34.65c0.167-0.533 0.46-0.983 0.88-1.35 0.413-0.367 0.903-0.583 1.47-0.65v0c0.567-0.1 1.117-0.177 1.65-0.23 0.533-0.047 0.95-0.07 1.25-0.07v0c0.3 0 0.717 0.023 1.25 0.07 0.533 0.053 1.083 0.113 1.65 0.18v0c0.467 0.067 0.927 0.317 1.38 0.75 0.447 0.433 0.787 0.867 1.02 1.3v0c1.867 5.733 3.76 11.507 5.68 17.32 1.913 5.82 3.803 11.597 5.67 17.33v0c0.467 1.533-0.233 2.6-2.1 3.2v0c-0.267 0.067-0.507 0.127-0.72 0.18-0.22 0.047-0.463 0.07-0.73 0.07v0c-0.467 0-0.89-0.16-1.27-0.48-0.387-0.313-0.663-0.72-0.83-1.22v0zM109.1-12v0c0 1.067-0.373 1.973-1.12 2.72-0.753 0.753-1.663 1.13-2.73 1.13v0c-1.067 0-1.967-0.377-2.7-1.13-0.733-0.747-1.1-1.653-1.1-2.72v0c0-1.067 0.367-1.977 1.1-2.73 0.733-0.747 1.633-1.12 2.7-1.12v0c1.067 0 1.977 0.373 2.73 1.12 0.747 0.753 1.12 1.663 1.12 2.73z" fill="#010c80" fill-rule="nonzero" stroke="none" stroke-width="1" stroke-linecap="butt" stroke-linejoin="miter" stroke-miterlimit="10" stroke-dasharray="" stroke-dashoffset="0" font-family="none" font-weight="none" font-size="none" text-anchor="none" style="mix-blend-mode: normal" data-fill-palette-color="primary" opacity="1"></path></g></svg></g></svg></g><g transform="matrix(1,0,0,1,0,152.55178059477717)"><svg viewBox="0 0 120.38399999999999 14.048277296360483" height="14.048277296360483" width="120.38399999999999"><g transform="matrix(1,0,0,1,0,0)"><svg width="120.38399999999999" viewBox="3 -39.65 432.7 50.5" height="14.048277296360483" data-palette-color="#0080ff"><path d="M10.9-34.55Q17.15-34.55 20.43-31.78 23.7-29 23.7-23.6L23.7-23.6Q23.7-17.85 20.48-15 17.25-12.15 11.35-12.15L11.35-12.15 9.35-12.15 9.35 0 3 0 3-34.55 10.9-34.55ZM11-16.9Q14.25-16.9 15.7-18.4 17.15-19.9 17.15-23.55L17.15-23.55Q17.15-26.85 15.7-28.35 14.25-29.85 11.05-29.85L11.05-29.85 9.35-29.85 9.35-16.9 11-16.9ZM46.15-13.85Q46.15-13.4 46-11.3L46-11.3 32.35-11.3Q32.55-7.2 33.77-5.58 35-3.95 37.25-3.95L37.25-3.95Q38.8-3.95 40.05-4.48 41.3-5 42.75-6.15L42.75-6.15 45.3-2.65Q41.8 0.75 36.9 0.75L36.9 0.75Q31.7 0.75 28.92-2.85 26.15-6.45 26.15-13L26.15-13Q26.15-19.55 28.8-23.35 31.45-27.15 36.3-27.15L36.3-27.15Q40.95-27.15 43.55-23.78 46.15-20.4 46.15-13.85L46.15-13.85ZM40.15-15.3L40.15-15.65Q40.15-19.4 39.25-21.13 38.35-22.85 36.35-22.85L36.35-22.85Q34.5-22.85 33.52-21.18 32.55-19.5 32.35-15.3L32.35-15.3 40.15-15.3ZM56.05 0.75Q53.35 0.75 51.77-0.93 50.2-2.6 50.2-5.4L50.2-5.4 50.2-37.05 56.35-37.7 56.35-5.65Q56.35-5 56.65-4.6 56.95-4.2 57.55-4.2L57.55-4.2Q57.9-4.2 58.22-4.3 58.55-4.4 58.65-4.4L58.65-4.4 59.85-0.2Q58.15 0.75 56.05 0.75L56.05 0.75ZM79.79-6.4Q79.79-5.1 80.14-4.48 80.49-3.85 81.29-3.45L81.29-3.45 80.04 0.65Q77.99 0.4 76.77-0.45 75.54-1.3 74.94-3.05L74.94-3.05Q72.64 0.75 68.49 0.75L68.49 0.75Q65.19 0.75 63.24-1.48 61.29-3.7 61.29-7.4L61.29-7.4Q61.29-11.7 63.97-13.95 66.64-16.2 71.74-16.2L71.74-16.2 73.79-16.2 73.79-18.05Q73.79-20.55 72.92-21.58 72.04-22.6 70.09-22.6L70.09-22.6Q67.74-22.6 64.24-21.3L64.24-21.3 62.84-25.3Q64.84-26.2 66.99-26.68 69.14-27.15 71.09-27.15L71.09-27.15Q79.79-27.15 79.79-18.35L79.79-18.35 79.79-6.4ZM70.14-3.7Q72.54-3.7 73.79-7L73.79-7 73.79-12.55 72.34-12.55Q69.79-12.55 68.62-11.4 67.44-10.25 67.44-7.85L67.44-7.85Q67.44-5.8 68.14-4.75 68.84-3.7 70.14-3.7L70.14-3.7ZM104.24-26.45L97.24 0.1Q95.94 4.9 93.04 7.65 90.14 10.4 85.29 10.85L85.29 10.85 84.59 6.5Q87.74 5.85 89.32 4.42 90.89 3 91.79 0L91.79 0 89.49 0 82.79-26.45 89.04-26.45 93.44-4.1 98.14-26.45 104.24-26.45ZM124.04-6.4Q124.04-5.1 124.39-4.48 124.74-3.85 125.54-3.45L125.54-3.45 124.29 0.65Q122.24 0.4 121.01-0.45 119.79-1.3 119.19-3.05L119.19-3.05Q116.89 0.75 112.74 0.75L112.74 0.75Q109.44 0.75 107.49-1.48 105.54-3.7 105.54-7.4L105.54-7.4Q105.54-11.7 108.21-13.95 110.89-16.2 115.99-16.2L115.99-16.2 118.04-16.2 118.04-18.05Q118.04-20.55 117.16-21.58 116.29-22.6 114.34-22.6L114.34-22.6Q111.99-22.6 108.49-21.3L108.49-21.3 107.09-25.3Q109.09-26.2 111.24-26.68 113.39-27.15 115.34-27.15L115.34-27.15Q124.04-27.15 124.04-18.35L124.04-18.35 124.04-6.4ZM114.39-3.7Q116.79-3.7 118.04-7L118.04-7 118.04-12.55 116.59-12.55Q114.04-12.55 112.86-11.4 111.69-10.25 111.69-7.85L111.69-7.85Q111.69-5.8 112.39-4.75 113.09-3.7 114.39-3.7L114.39-3.7ZM142.19-27.15Q145.04-27.15 146.69-25.1 148.34-23.05 148.34-19.6L148.34-19.6 148.34 0 142.19 0 142.19-18.9Q142.19-20.8 141.66-21.63 141.14-22.45 140.14-22.45L140.14-22.45Q138.04-22.45 135.99-18.5L135.99-18.5 135.99 0 129.84 0 129.84-26.45 135.19-26.45 135.64-23Q136.99-25.1 138.51-26.13 140.04-27.15 142.19-27.15L142.19-27.15ZM170.78-6.4Q170.78-5.1 171.13-4.48 171.48-3.85 172.28-3.45L172.28-3.45 171.03 0.65Q168.98 0.4 167.76-0.45 166.53-1.3 165.93-3.05L165.93-3.05Q163.63 0.75 159.48 0.75L159.48 0.75Q156.18 0.75 154.23-1.48 152.28-3.7 152.28-7.4L152.28-7.4Q152.28-11.7 154.96-13.95 157.63-16.2 162.73-16.2L162.73-16.2 164.78-16.2 164.78-18.05Q164.78-20.55 163.91-21.58 163.03-22.6 161.08-22.6L161.08-22.6Q158.73-22.6 155.23-21.3L155.23-21.3 153.83-25.3Q155.83-26.2 157.98-26.68 160.13-27.15 162.08-27.15L162.08-27.15Q170.78-27.15 170.78-18.35L170.78-18.35 170.78-6.4ZM161.13-3.7Q163.53-3.7 164.78-7L164.78-7 164.78-12.55 163.33-12.55Q160.78-12.55 159.61-11.4 158.43-10.25 158.43-7.85L158.43-7.85Q158.43-5.8 159.13-4.75 159.83-3.7 161.13-3.7L161.13-3.7ZM188.93-27.15Q191.78-27.15 193.43-25.1 195.08-23.05 195.08-19.6L195.08-19.6 195.08 0 188.93 0 188.93-18.9Q188.93-20.8 188.41-21.63 187.88-22.45 186.88-22.45L186.88-22.45Q184.78-22.45 182.73-18.5L182.73-18.5 182.73 0 176.58 0 176.58-26.45 181.93-26.45 182.38-23Q183.73-25.1 185.26-26.13 186.78-27.15 188.93-27.15L188.93-27.15ZM222.68-27.15Q226.58-27.15 228.58-23.58 230.58-20 230.58-13.3L230.58-13.3Q230.58-6.8 228.3-3.03 226.03 0.75 221.98 0.75L221.98 0.75Q218.78 0.75 216.63-2.1L216.63-2.1 216.63 10.15 210.48 10.85 210.48-26.45 215.93-26.45 216.18-23.25Q217.48-25.25 219.08-26.2 220.68-27.15 222.68-27.15L222.68-27.15ZM220.33-3.95Q222.23-3.95 223.23-6.13 224.23-8.3 224.23-13.25L224.23-13.25Q224.23-18.45 223.38-20.5 222.53-22.55 220.73-22.55L220.73-22.55Q218.43-22.55 216.63-19.25L216.63-19.25 216.63-6.45Q218.23-3.95 220.33-3.95L220.33-3.95ZM254.02-13.85Q254.02-13.4 253.87-11.3L253.87-11.3 240.22-11.3Q240.42-7.2 241.65-5.58 242.87-3.95 245.12-3.95L245.12-3.95Q246.67-3.95 247.92-4.48 249.17-5 250.62-6.15L250.62-6.15 253.17-2.65Q249.67 0.75 244.77 0.75L244.77 0.75Q239.57 0.75 236.8-2.85 234.02-6.45 234.02-13L234.02-13Q234.02-19.55 236.67-23.35 239.32-27.15 244.17-27.15L244.17-27.15Q248.82-27.15 251.42-23.78 254.02-20.4 254.02-13.85L254.02-13.85ZM248.02-15.3L248.02-15.65Q248.02-19.4 247.12-21.13 246.22-22.85 244.22-22.85L244.22-22.85Q242.37-22.85 241.4-21.18 240.42-19.5 240.22-15.3L240.22-15.3 248.02-15.3ZM270.67-27.15Q273.52-27.15 275.17-25.1 276.82-23.05 276.82-19.6L276.82-19.6 276.82 0 270.67 0 270.67-18.9Q270.67-20.8 270.15-21.63 269.62-22.45 268.62-22.45L268.62-22.45Q266.52-22.45 264.47-18.5L264.47-18.5 264.47 0 258.32 0 258.32-26.45 263.67-26.45 264.12-23Q265.47-25.1 267-26.13 268.52-27.15 270.67-27.15L270.67-27.15ZM300.52-26.45L300.52 0 295.17 0 294.87-3.35Q293.62-1.3 292.07-0.28 290.52 0.75 288.47 0.75L288.47 0.75Q285.57 0.75 283.89-1.3 282.22-3.35 282.22-6.65L282.22-6.65 282.22-26.45 288.37-26.45 288.37-7Q288.37-3.9 290.47-3.9L290.47-3.9Q291.67-3.9 292.62-4.83 293.57-5.75 294.37-7.45L294.37-7.45 294.37-26.45 300.52-26.45ZM318.57-27.15Q321.42-27.15 323.07-25.1 324.72-23.05 324.72-19.6L324.72-19.6 324.72 0 318.57 0 318.57-18.9Q318.57-20.8 318.04-21.63 317.52-22.45 316.52-22.45L316.52-22.45Q314.42-22.45 312.37-18.5L312.37-18.5 312.37 0 306.22 0 306.22-37 312.37-37.65 312.37-23.3Q313.62-25.25 315.09-26.2 316.57-27.15 318.57-27.15L318.57-27.15ZM340.11-37.05L346.26-37.7 346.26 0 340.11 0 340.11-37.05ZM353.61-26.45L359.61-26.45 352.61-14.75 360.21 0 353.61 0 346.51-14.45 353.61-26.45ZM379.66-6.4Q379.66-5.1 380.01-4.48 380.36-3.85 381.16-3.45L381.16-3.45 379.91 0.65Q377.86 0.4 376.63-0.45 375.41-1.3 374.81-3.05L374.81-3.05Q372.51 0.75 368.36 0.75L368.36 0.75Q365.06 0.75 363.11-1.48 361.16-3.7 361.16-7.4L361.16-7.4Q361.16-11.7 363.83-13.95 366.51-16.2 371.61-16.2L371.61-16.2 373.66-16.2 373.66-18.05Q373.66-20.55 372.78-21.58 371.91-22.6 369.96-22.6L369.96-22.6Q367.61-22.6 364.11-21.3L364.11-21.3 362.71-25.3Q364.71-26.2 366.86-26.68 369.01-27.15 370.96-27.15L370.96-27.15Q379.66-27.15 379.66-18.35L379.66-18.35 379.66-6.4ZM370.01-3.7Q372.41-3.7 373.66-7L373.66-7 373.66-12.55 372.21-12.55Q369.66-12.55 368.48-11.4 367.31-10.25 367.31-7.85L367.31-7.85Q367.31-5.8 368.01-4.75 368.71-3.7 370.01-3.7L370.01-3.7ZM392.81-27.15Q397.51-27.15 400.76-24.05L400.76-24.05 398.41-20.7Q397.01-21.7 395.76-22.2 394.51-22.7 393.21-22.7L393.21-22.7Q391.76-22.7 390.93-21.93 390.11-21.15 390.11-19.8L390.11-19.8Q390.11-18.45 391.03-17.63 391.96-16.8 394.76-15.7L394.76-15.7Q398.21-14.35 399.86-12.5 401.51-10.65 401.51-7.55L401.51-7.55Q401.51-3.7 398.81-1.48 396.11 0.75 391.96 0.75L391.96 0.75Q389.26 0.75 386.98-0.23 384.71-1.2 383.01-2.95L383.01-2.95 386.01-6.25Q388.81-3.8 391.71-3.8L391.71-3.8Q393.36-3.8 394.31-4.67 395.26-5.55 395.26-7.1L395.26-7.1Q395.26-8.25 394.86-8.97 394.46-9.7 393.46-10.33 392.46-10.95 390.46-11.7L390.46-11.7Q387.01-13.05 385.53-14.85 384.06-16.65 384.06-19.45L384.06-19.45Q384.06-22.8 386.43-24.98 388.81-27.15 392.81-27.15L392.81-27.15ZM405.35-26.45L411.5-26.45 411.5 0 405.35 0 405.35-26.45ZM408.4-39.65Q410.05-39.65 411.08-38.6 412.1-37.55 412.1-35.9L412.1-35.9Q412.1-34.3 411.08-33.25 410.05-32.2 408.4-32.2L408.4-32.2Q406.75-32.2 405.73-33.25 404.7-34.3 404.7-35.9L404.7-35.9Q404.7-37.55 405.73-38.6 406.75-39.65 408.4-39.65L408.4-39.65ZM429.55-27.15Q432.4-27.15 434.05-25.1 435.7-23.05 435.7-19.6L435.7-19.6 435.7 0 429.55 0 429.55-18.9Q429.55-20.8 429.03-21.63 428.5-22.45 427.5-22.45L427.5-22.45Q425.4-22.45 423.35-18.5L423.35-18.5 423.35 0 417.2 0 417.2-37 423.35-37.65 423.35-23.3Q424.6-25.25 426.08-26.2 427.55-27.15 429.55-27.15L429.55-27.15Z" opacity="1" transform="matrix(1,0,0,1,0,0)" fill="#0080ff" class="slogan-text-1" data-fill-palette-color="secondary" id="text-1"></path></svg></g></svg></g></svg></g></svg></g><g><svg viewBox="0 0 118.656 177.489691538604" height="177.489691538604" width="118.656"><g><svg xmlns="http://www.w3.org/2000/svg" xmlns:xlink="http://www.w3.org/1999/xlink" version="1.1" x="0" y="0" viewBox="15.659 1.526 64.812 96.94800000000001" enable-background="new 0 0 100 100" xml:space="preserve" height="177.489691538604" width="118.656" class="icon-icon-0" data-fill-palette-color="accent" id="icon-0"><path d="M80.471 29.75C80.471 33.369 78.189 36.303 75.373 36.303H20.757C17.942 36.303 15.659 33.369 15.659 29.75S17.942 23.197 20.757 23.197H75.373C78.188 23.197 80.471 26.131 80.471 29.75" fill="#0023ff" data-fill-palette-color="accent"></path><path d="M57.838 88.516C57.838 94.016 53.38 98.474 47.88 98.474S37.922 94.016 37.922 88.516V11.484C37.922 5.984 42.38 1.526 47.88 1.526S57.838 5.984 57.838 11.484z" fill="#0023ff" data-fill-palette-color="accent"></path></svg></g></svg></g></svg></g></svg></g></svg></g></svg></g><defs></defs></svg><rect width="320" height="360" fill="none" stroke="none" visibility="hidden"></rect></g></svg></g></svg>